<?xml version="1.0" encoding="UTF-8"?><svg id="_レイヤー_2" xmlns="http://www.w3.org/2000/svg" viewBox="0 0 128 76.8"><defs><style>.cls-1{fill:#fff;}</style></defs><g id="_レイヤー_1-2"><path class="cls-1" d="m30.2,20h24.1v1.9h-21.9v14.4h20.6v1.9h-20.6v15.8h22.2v1.9h-24.4V20Zm26.3,0h2.6l11.4,15.8,11.5-15.8L97.8,0l-26,37.5,13.4,18.4h-2.7l-12.1-16.8-12.2,16.8h-2.6l13.5-18.4s-12.6-17.5-12.6-17.5Zm29.7,1.9v-1.9h27.5v1.9h-12.7v34h-2.2V21.9h-12.6ZM0,20h2.7l38.2,56.8-15.8-20.9L2.3,22.7l-.1,33.2H0V20Zm113.5,33.4c.5,0,.8-.3.8-.8s-.3-.8-.8-.8-.8.3-.8.8.4.8.8.8Zm2.2-2.1c0,1.3,1,2.2,2.4,2.2,1.5,0,2.4-.9,2.4-2.5v-5.5h-1.2v5.5c0,.9-.4,1.3-1.2,1.3-.7,0-1.2-.4-1.2-1.1h-1.2v.1Zm6.3-.1c.1,1.4,1.2,2.3,3,2.3s3-.9,3-2.4c0-1.2-.7-1.8-2.2-2.2l-.9-.2c-1-.2-1.4-.6-1.4-1.1,0-.7.6-1.2,1.6-1.2.9,0,1.5.4,1.6,1.2h1.2c-.1-1.3-1.2-2.2-2.8-2.2-1.7,0-2.8.9-2.8,2.3,0,1.1.6,1.8,2,2.1l1,.2c1,.2,1.5.6,1.5,1.2,0,.7-.7,1.2-1.7,1.2s-1.8-.5-1.9-1.2c0,0-1.2,0-1.2,0Z"/></g></svg>