<svg width="500" height="500" viewBox="0 0 500 500" fill="none" xmlns="http://www.w3.org/2000/svg">
<path d="M157.8 487.4C139.7 487.4 122.6 483.2 108 474.8C82.2 460.1 63.5 432.2 56.7 398.1C50.4 366.9 54.4 335.6 59.1 309.1C78.1 202.4 122.8 108.8 188.4 38.4C218.5 6.19999 242.1 6.39999 256.6 12.2C277.3 20.5 288.3 44.2 287.5 78.7C286.8 110.4 282.4 142 274.7 172.7C302.4 165.3 327.3 169.1 343.9 183.5C350.2 189 355.2 196 358.7 203.9C359.3 203.9 359.9 203.7 360.5 203.6C394.2 199.3 429 223.2 441.4 259.1C453.7 294.9 443.3 331.2 432.5 355.4C407.8 410.1 358.8 453.3 301.5 470.8L294.7 448.4C345.7 432.8 389.3 394.5 411.2 345.8C424.1 317.1 427 289.1 419.4 266.8C411.9 244.9 389.3 224.2 364.3 226.8C364.7 232.6 364.4 238.6 363.4 244.6C360.5 261.9 352.2 279.2 337.3 298.8C322.7 317.9 304 324.7 289.6 316C283.3 312.2 279.2 306.4 277.6 299.1C274 282.7 284.7 265 288.1 260C300 242.3 315.6 222.3 336.4 211.4C334.4 207.4 331.8 203.9 328.6 201.2C310.9 185.9 281.1 194.8 272.4 198C270.5 198.7 268.7 199.4 266.9 200.1C258.8 225.1 248.3 249.4 235.7 272.5C231.4 280.4 226 289.4 217.4 295.7C206.1 303.9 191.6 305 181.1 298.3C174.6 294.1 170.3 287.8 168.7 279.9C166 266 172.4 250.5 179.3 240.7C196.6 216.1 220.4 196 247.6 182.9C257.7 148.9 263.3 113.6 264.1 78.1C264.4 64.1 262.7 39.8 247.9 33.9C233.2 28 215.1 44.2 205.6 54.3C143 121.3 100.4 210.8 82.2 313.1C77.9 337.4 74.2 366 79.7 393.4C85.2 420.9 99.8 443.1 119.7 454.4C136.7 464.1 159.4 466.4 182 460.9C201.2 456.2 220.5 446.4 242.7 430.2C251.5 423.7 279.6 401 272.1 379.3C267.4 365.7 249.5 359.3 234.8 361.1C217 363.2 199.9 374.2 184.8 383.9L172.1 364.2C189.3 353.1 208.8 340.6 232 337.9C255.6 335.1 285.3 346 294.2 371.7C302.9 396.9 289.2 425.2 256.5 449.2C231.8 467.3 209.8 478.3 187.5 483.8C177.5 486.2 167.5 487.5 157.8 487.5V487.4ZM340.7 236.1C327.3 245.4 316.2 260 307.3 273.1C302.2 280.7 299.2 289.5 300.3 294C300.5 295.1 300.9 295.5 301.6 295.9C304.6 297.7 312.5 292.5 318.5 284.6C331 268.1 337.9 254.2 340.2 240.7C340.5 239.1 340.7 237.6 340.8 236L340.7 236.1ZM235.7 216.9C221.2 227.1 208.5 239.7 198.3 254.2C193.3 261.3 190.4 270.2 191.5 275.4C191.9 277.2 192.6 278 193.5 278.6C195.7 280 200.1 279.2 203.4 276.8C208.1 273.4 211.7 267.3 214.9 261.3C222.7 247 229.7 232.1 235.7 217V216.9Z" fill="white"/>
</svg>
